<svg width="19" height="19" viewBox="0 0 19 19" fill="none" xmlns="http://www.w3.org/2000/svg">
<path d="M7.48014 17.5971L7.4796 17.5963L0.815759 6.83072C0.815646 6.83053 0.815533 6.83035 0.81542 6.83016C0.434714 6.19629 0.193929 5.43033 0.122385 4.61933C0.0508238 3.80815 0.151691 2.98702 0.412716 2.25005L0.412737 2.25006L0.413402 2.24805C0.624444 1.60954 0.967616 1.06946 1.39866 0.689849C1.82905 0.310817 2.32818 0.108084 2.83625 0.1H16.1637C16.6718 0.108084 17.1709 0.310817 17.6013 0.689849C18.0324 1.06946 18.3756 1.60954 18.5866 2.24805L18.5866 2.24806L18.5873 2.25005C18.8483 2.98702 18.9492 3.80815 18.8776 4.61933C18.8061 5.43034 18.5653 6.1963 18.1846 6.83018C18.1845 6.83036 18.1843 6.83054 18.1842 6.83072L11.5204 17.5963L11.5199 17.5971C11.273 18.0053 10.9626 18.3324 10.6129 18.5568C10.2637 18.7809 9.88363 18.8973 9.5 18.9C9.11636 18.8973 8.73631 18.7809 8.3871 18.5568C8.0374 18.3324 7.72705 18.0053 7.48014 17.5971Z" fill="#F8CF7F" stroke="#313030" stroke-width="0.2"/>
</svg>
