<svg width="120" height="120" viewBox="0 0 120 120" fill="none" xmlns="http://www.w3.org/2000/svg">
<path d="M69.8366 38.3201V113.668H55.5986V38.3201H29.3906V25.7202H96.0446V38.3201H69.8366Z" fill="#C8C8C8"/>
<path d="M72.7738 88.4914L72.285 88.339C70.0935 92.2143 66.5699 94.9145 61.7145 96.4397C56.966 97.9088 51.3331 97.6273 44.8159 95.5952C39.765 94.0203 35.3729 91.6229 31.6395 88.4029C27.9315 85.1015 25.0604 81.1225 23.0263 76.4659C21.0991 71.7532 20.0903 66.3884 20 60.3714C20.0165 54.2984 21.1424 47.6774 23.3777 40.5085C25.5877 33.421 28.4397 27.4276 31.9338 22.5283C35.4533 17.5475 39.4266 13.6914 43.8537 10.9601C48.2807 8.22875 53.0674 6.63747 58.2136 6.18624C63.3853 5.65355 68.7817 6.26355 74.4028 8.01624C82.0605 10.404 88.0036 14.1341 92.2319 19.2067C96.4857 24.1979 99.1391 30.1649 100.192 37.1078L86.8925 40.201C86.5078 35.7012 84.9858 31.6959 82.3263 28.1851C79.6922 24.5929 75.7683 21.9839 70.5545 20.3582C63.7929 18.2499 57.6616 18.7068 52.1606 21.729C46.7411 24.7766 42.7994 30.2514 40.3355 38.1536L35.9918 52.0841C33.5279 59.9862 33.6595 66.7311 36.3864 72.3188C39.1949 77.9319 43.9799 81.7926 50.7415 83.9009C53.4299 84.7392 56.0976 85.2135 58.7448 85.3238C61.4173 85.3526 63.8529 84.9948 66.0516 84.2501C68.3571 83.4495 70.3442 82.2366 72.0129 80.6117C73.7884 78.9307 75.0953 76.746 75.9336 74.0577L77.9911 67.459L60.3946 61.9723L64.0905 50.1192L95.0065 59.7589L80.8326 105.216L68.735 101.444L72.7738 88.4914Z" fill="#F8CF7F"/>
</svg>
