<svg width="53" height="43" viewBox="0 0 53 43" fill="none" xmlns="http://www.w3.org/2000/svg">
<path d="M26.4668 19.2163L44.55 0.947051C45.7999 -0.315679 47.821 -0.315679 49.0576 0.947051L52.0626 3.98298C53.3125 5.24571 53.3125 7.28757 52.0626 8.53687L39.2447 21.4866L52.0626 34.4363C53.3125 35.699 53.3125 37.7409 52.0626 38.9902L49.0709 42.053C47.821 43.3157 45.7999 43.3157 44.5633 42.053L26.4801 23.7837C25.2169 22.5209 25.2169 20.4791 26.4668 19.2163ZM0.937405 23.7837L19.0207 42.053C20.2706 43.3157 22.2916 43.3157 23.5282 42.053L26.5332 39.017C27.7831 37.7543 27.7831 35.7124 26.5332 34.4631L13.7154 21.5134L26.5332 8.56374C27.7831 7.301 27.7831 5.25914 26.5332 4.00984L23.5282 0.97392C22.2783 -0.288811 20.2573 -0.288811 19.0207 0.97392L0.937405 19.2432C-0.31247 20.4791 -0.31247 22.5209 0.937405 23.7837Z" fill="#3F4346"/>
</svg>
