<svg width="70" height="70" viewBox="0 0 70 70" fill="none" xmlns="http://www.w3.org/2000/svg">
<path d="M46.1384 34.72L62.6869 18.959C64.7177 17.0249 64.7177 13.889 62.6869 11.9534L59.0091 8.45057C56.9784 6.51648 53.6859 6.51648 51.6535 8.45057L35.105 24.2116L18.5565 8.45057C16.5258 6.51648 13.2333 6.51648 11.2009 8.45057L7.52305 11.9534C5.49232 13.8875 5.49232 17.0233 7.52305 18.959L24.0716 34.72L7.52305 50.481C5.49232 52.4151 5.49232 55.5509 7.52305 57.4866L11.2009 60.9894C13.2316 62.9235 16.5258 62.9235 18.5565 60.9894L35.105 45.2284L51.6535 60.9894C53.6842 62.9235 56.9784 62.9235 59.0091 60.9894L62.6869 57.4866C64.7177 55.5525 64.7177 52.4167 62.6869 50.481L46.1384 34.72Z" fill="#AD4242" fill-opacity="0.69"/>
</svg>
