<svg width="70" height="70" viewBox="0 0 70 70" fill="none" xmlns="http://www.w3.org/2000/svg">
<path d="M51.2773 62.4287C50.8108 62.4305 50.3507 62.3205 49.9356 62.1078L35.0606 54.3203L20.1856 62.1078C19.7026 62.3618 19.158 62.4752 18.6137 62.4351C18.0695 62.395 17.5474 62.203 17.1068 61.8809C16.6663 61.5588 16.3249 61.1196 16.1215 60.6132C15.9182 60.1068 15.861 59.5535 15.9564 59.0162L18.8731 42.5953L6.85642 30.9287C6.48151 30.5545 6.21555 30.0854 6.08708 29.5715C5.95862 29.0577 5.97251 28.5185 6.12725 28.012C6.2963 27.4936 6.60727 27.033 7.02486 26.6825C7.44245 26.3319 7.94994 26.1054 8.48975 26.0287L25.1148 23.6078L32.4356 8.64532C32.6744 8.1522 33.0473 7.73632 33.5116 7.44533C33.9758 7.15434 34.5127 7 35.0606 7C35.6085 7 36.1453 7.15434 36.6096 7.44533C37.0739 7.73632 37.4468 8.1522 37.6856 8.64532L45.0939 23.5787L61.7189 25.9995C62.2587 26.0762 62.7662 26.3027 63.1838 26.6533C63.6014 27.0039 63.9124 27.4645 64.0814 27.9828C64.2362 28.4894 64.2501 29.0285 64.1216 29.5423C63.9931 30.0562 63.7272 30.5254 63.3523 30.8995L51.3356 42.5662L54.2523 58.987C54.3564 59.5338 54.3019 60.099 54.0951 60.6158C53.8884 61.1326 53.5381 61.5795 53.0856 61.9037C52.5574 62.2738 51.9215 62.4584 51.2773 62.4287Z" fill="#AD4242" fill-opacity="0.69"/>
</svg>
